<?xml version="1.0" encoding="UTF-8"?>
<svg xmlns="http://www.w3.org/2000/svg" xmlns:xlink="http://www.w3.org/1999/xlink" width="32px" height="32px" viewBox="0 0 32 32" version="1.1">
<g id="surface1">
<path style=" stroke:none;fill-rule:nonzero;fill:rgb(99.215686%,99.215686%,99.215686%);fill-opacity:1;" d="M 0 0 C 10.558594 0 21.121094 0 32 0 C 32 10.558594 32 21.121094 32 32 C 21.441406 32 10.878906 32 0 32 C 0 21.441406 0 10.878906 0 0 Z M 0 0 "/>
<path style=" stroke:none;fill-rule:nonzero;fill:rgb(20.392157%,20.392157%,20.392157%);fill-opacity:1;" d="M 4 12 C 4.792969 12 5.585938 12 6.398438 12 C 6.398438 13.054688 6.398438 14.113281 6.398438 15.199219 C 6.929688 15.199219 7.457031 15.199219 8 15.199219 C 8 14.144531 8 13.089844 8 12 C 9.054688 12 10.113281 12 11.199219 12 C 11.464844 13.320312 11.726562 14.640625 12 16 C 12.527344 14.679688 13.054688 13.359375 13.601562 12 C 14.65625 12 15.710938 12 16.800781 12 C 17.328125 13.320312 17.855469 14.640625 18.398438 16 C 18.664062 16 18.929688 16 19.199219 16 C 19.464844 14.679688 19.726562 13.359375 20 12 C 22.640625 12 25.28125 12 28 12 C 28 14.640625 28 17.28125 28 20 C 26.945312 20 25.886719 20 24.800781 20 C 24.800781 19.472656 24.800781 18.945312 24.800781 18.398438 C 24.273438 18.398438 23.742188 18.398438 23.199219 18.398438 C 22.9375 18.929688 22.671875 19.457031 22.398438 20 C 20.289062 20 18.175781 20 16 20 C 16 19.472656 16 18.945312 16 18.398438 C 15.472656 18.398438 14.945312 18.398438 14.398438 18.398438 C 14.398438 18.929688 14.398438 19.457031 14.398438 20 C 10.96875 20 7.535156 20 4 20 C 4 17.359375 4 14.71875 4 12 Z M 4 12 "/>
<path style=" stroke:none;fill-rule:nonzero;fill:rgb(26.666667%,26.666667%,26.666667%);fill-opacity:1;" d="M 4 12 C 4.792969 12 5.585938 12 6.398438 12 C 6.398438 13.054688 6.398438 14.113281 6.398438 15.199219 C 6.929688 15.199219 7.457031 15.199219 8 15.199219 C 8 14.144531 8 13.089844 8 12 C 9.054688 12 10.113281 12 11.199219 12 C 11.332031 13.613281 11.460938 15.230469 11.589844 16.84375 C 11.898438 18.714844 11.898438 18.714844 14.398438 20 C 10.96875 20 7.535156 20 4 20 C 4 17.359375 4 14.71875 4 12 Z M 4 12 "/>
<path style=" stroke:none;fill-rule:nonzero;fill:rgb(8.627451%,8.627451%,8.627451%);fill-opacity:1;" d="M 13.601562 12 C 14.65625 12 15.710938 12 16.800781 12 C 18 14.695312 18.398438 16.164062 18.398438 19.199219 C 16.289062 19.199219 14.175781 19.199219 12 19.199219 C 12.699219 13.800781 12.699219 13.800781 13.601562 12 Z M 13.601562 12 "/>
<path style=" stroke:none;fill-rule:nonzero;fill:rgb(18.039216%,18.039216%,18.039216%);fill-opacity:1;" d="M 20 12 C 21.054688 12 22.113281 12 23.199219 12 C 23.300781 15.800781 23.300781 15.800781 22.398438 17.601562 C 22.398438 18.390625 22.398438 19.183594 22.398438 20 C 20.289062 20 18.175781 20 16 20 C 16.792969 19.472656 17.585938 18.945312 18.398438 18.398438 C 19.03125 16.835938 19.03125 16.835938 19.351562 15.101562 C 19.566406 14.078125 19.777344 13.054688 20 12 Z M 20 12 "/>
<path style=" stroke:none;fill-rule:nonzero;fill:rgb(0%,0%,0%);fill-opacity:1;" d="M 8.800781 12.800781 C 9.328125 12.800781 9.855469 12.800781 10.398438 12.800781 C 10.398438 14.910156 10.398438 17.023438 10.398438 19.199219 C 9.871094 19.199219 9.34375 19.199219 8.800781 19.199219 C 8.160156 16.570312 7.921875 15.433594 8.800781 12.800781 Z M 8.800781 12.800781 "/>
</g>
</svg>
