<?xml version="1.0" encoding="UTF-8"?>
<svg xmlns="http://www.w3.org/2000/svg" xmlns:xlink="http://www.w3.org/1999/xlink" width="42px" height="42px" viewBox="0 0 42 42" version="1.1">
<g id="surface1">
<path style=" stroke:none;fill-rule:nonzero;fill:rgb(99.607843%,99.607843%,99.607843%);fill-opacity:1;" d="M 0 0 C 13.859375 0 27.71875 0 42 0 C 42 13.859375 42 27.71875 42 42 C 28.140625 42 14.28125 42 0 42 C 0 28.140625 0 14.28125 0 0 Z M 0 0 "/>
<path style=" stroke:none;fill-rule:nonzero;fill:rgb(97.647059%,0.392157%,7.058824%);fill-opacity:1;" d="M 5.039062 15.035156 C 15.574219 15.035156 26.105469 15.035156 36.960938 15.035156 C 36.960938 18.972656 36.960938 22.910156 36.960938 26.964844 C 26.425781 26.964844 15.894531 26.964844 5.039062 26.964844 C 5.039062 23.027344 5.039062 19.089844 5.039062 15.035156 Z M 5.039062 15.035156 "/>
<path style=" stroke:none;fill-rule:nonzero;fill:rgb(0.784314%,0%,0%);fill-opacity:1;" d="M 25.367188 16.632812 C 26.503906 16.632812 27.640625 16.632812 28.8125 16.632812 C 28.9375 16.882812 28.945312 17.148438 28.976562 17.425781 C 29.019531 17.8125 29.070312 18.195312 29.144531 18.578125 C 29.246094 19.121094 29.308594 19.667969 29.367188 20.21875 C 29.386719 20.367188 29.386719 20.367188 29.402344 20.519531 C 29.429688 20.765625 29.457031 21.007812 29.484375 21.253906 C 29.566406 21.253906 29.648438 21.253906 29.734375 21.253906 C 29.738281 21.1875 29.742188 21.125 29.746094 21.058594 C 29.816406 19.871094 29.996094 18.695312 30.203125 17.527344 C 30.25 17.230469 30.285156 16.929688 30.324219 16.632812 C 31.488281 16.632812 32.652344 16.632812 33.851562 16.632812 C 34 18.367188 34 18.367188 34.0625 19.113281 C 34.101562 19.621094 34.144531 20.125 34.1875 20.632812 C 34.222656 21.042969 34.257812 21.449219 34.292969 21.859375 C 34.304688 22.015625 34.316406 22.171875 34.332031 22.324219 C 34.351562 22.542969 34.367188 22.765625 34.386719 22.984375 C 34.394531 23.078125 34.394531 23.078125 34.402344 23.171875 C 34.449219 23.769531 34.441406 24.34375 34.441406 24.949219 C 33.246094 24.949219 32.054688 24.949219 30.828125 24.949219 C 30.988281 23.261719 31.179688 21.585938 31.414062 19.90625 C 31.359375 19.90625 31.304688 19.90625 31.246094 19.90625 C 31.21875 20.050781 31.21875 20.050781 31.183594 20.195312 C 30.90625 21.453125 30.59375 22.699219 30.238281 23.941406 C 29.824219 23.941406 29.410156 23.941406 28.980469 23.941406 C 28.777344 23.253906 28.59375 22.566406 28.433594 21.871094 C 28.320312 21.371094 28.179688 20.882812 28.035156 20.390625 C 27.972656 20.160156 27.972656 20.160156 27.972656 19.90625 C 27.917969 19.90625 27.859375 19.90625 27.804688 19.90625 C 27.8125 19.984375 27.8125 19.984375 27.824219 20.066406 C 27.886719 20.609375 27.949219 21.152344 28.015625 21.695312 C 28.039062 21.898438 28.0625 22.101562 28.085938 22.304688 C 28.121094 22.597656 28.15625 22.890625 28.191406 23.179688 C 28.199219 23.269531 28.210938 23.359375 28.222656 23.453125 C 28.230469 23.539062 28.242188 23.625 28.253906 23.714844 C 28.261719 23.789062 28.269531 23.863281 28.277344 23.9375 C 28.316406 24.273438 28.355469 24.613281 28.390625 24.949219 C 27.199219 24.949219 26.007812 24.949219 24.78125 24.949219 C 24.78125 23.71875 24.78125 23.71875 24.824219 23.167969 C 24.828125 23.109375 24.835938 23.046875 24.839844 22.984375 C 24.855469 22.792969 24.871094 22.597656 24.886719 22.402344 C 24.898438 22.265625 24.910156 22.128906 24.921875 21.992188 C 24.949219 21.632812 24.980469 21.273438 25.007812 20.914062 C 25.039062 20.550781 25.066406 20.1875 25.097656 19.824219 C 25.140625 19.289062 25.183594 18.753906 25.226562 18.222656 C 25.238281 18.117188 25.246094 18.007812 25.253906 17.898438 C 25.289062 17.476562 25.328125 17.054688 25.367188 16.632812 Z M 25.367188 16.632812 "/>
<path style=" stroke:none;fill-rule:nonzero;fill:rgb(0.392157%,0%,0%);fill-opacity:1;" d="M 7.558594 16.632812 C 8.585938 16.632812 9.609375 16.632812 10.667969 16.632812 C 10.667969 17.671875 10.667969 17.671875 10.59375 18.160156 C 10.574219 18.300781 10.574219 18.300781 10.554688 18.441406 C 10.535156 18.558594 10.519531 18.671875 10.5 18.789062 C 10.445312 19.160156 10.390625 19.527344 10.332031 19.90625 C 11.082031 19.90625 11.828125 19.90625 12.601562 19.90625 C 12.5625 19.636719 12.5625 19.636719 12.527344 19.363281 C 12.503906 19.183594 12.480469 19.007812 12.457031 18.832031 C 12.441406 18.710938 12.425781 18.589844 12.40625 18.46875 C 12.382812 18.292969 12.359375 18.117188 12.335938 17.9375 C 12.316406 17.78125 12.316406 17.78125 12.292969 17.621094 C 12.261719 17.292969 12.265625 16.960938 12.265625 16.632812 C 13.289062 16.632812 14.316406 16.632812 15.371094 16.632812 C 15.371094 19.375 15.371094 22.121094 15.371094 24.949219 C 14.347656 24.949219 13.320312 24.949219 12.265625 24.949219 C 12.265625 23.90625 12.265625 23.90625 12.316406 23.484375 C 12.328125 23.394531 12.339844 23.304688 12.347656 23.210938 C 12.367188 23.078125 12.367188 23.078125 12.382812 22.9375 C 12.394531 22.84375 12.40625 22.75 12.417969 22.65625 C 12.464844 22.292969 12.511719 21.945312 12.601562 21.589844 C 11.851562 21.589844 11.101562 21.589844 10.332031 21.589844 C 10.390625 21.953125 10.390625 21.953125 10.449219 22.324219 C 10.582031 23.195312 10.671875 24.070312 10.753906 24.949219 C 9.699219 24.949219 8.644531 24.949219 7.558594 24.949219 C 7.558594 22.203125 7.558594 19.460938 7.558594 16.632812 Z M 7.558594 16.632812 "/>
<path style=" stroke:none;fill-rule:nonzero;fill:rgb(0.784314%,0%,0%);fill-opacity:1;" d="M 18.3125 16.632812 C 19.449219 16.632812 20.585938 16.632812 21.757812 16.632812 C 22.132812 17.578125 22.132812 17.578125 22.289062 18.042969 C 22.324219 18.144531 22.359375 18.25 22.398438 18.355469 C 22.433594 18.46875 22.472656 18.578125 22.507812 18.6875 C 22.546875 18.804688 22.585938 18.921875 22.628906 19.039062 C 22.730469 19.347656 22.835938 19.65625 22.9375 19.960938 C 23.101562 20.449219 23.265625 20.9375 23.429688 21.425781 C 23.488281 21.601562 23.550781 21.777344 23.609375 21.953125 C 23.777344 22.460938 23.949219 22.964844 24.128906 23.46875 C 24.171875 23.585938 24.171875 23.585938 24.214844 23.707031 C 24.265625 23.847656 24.316406 23.988281 24.367188 24.125 C 24.472656 24.421875 24.527344 24.632812 24.527344 24.949219 C 23.308594 24.949219 22.089844 24.949219 20.832031 24.949219 C 20.664062 23.6875 20.664062 23.6875 20.664062 23.269531 C 20.277344 23.269531 19.886719 23.269531 19.488281 23.269531 C 19.480469 23.398438 19.480469 23.398438 19.472656 23.527344 C 19.464844 23.644531 19.457031 23.757812 19.453125 23.871094 C 19.449219 23.929688 19.445312 23.984375 19.441406 24.042969 C 19.421875 24.355469 19.382812 24.640625 19.320312 24.949219 C 18.074219 24.949219 16.824219 24.949219 15.539062 24.949219 C 15.824219 23.910156 15.824219 23.910156 15.945312 23.546875 C 15.972656 23.46875 16 23.386719 16.03125 23.300781 C 16.074219 23.175781 16.074219 23.175781 16.117188 23.046875 C 16.148438 22.957031 16.179688 22.867188 16.210938 22.777344 C 16.273438 22.585938 16.339844 22.398438 16.402344 22.210938 C 16.5 21.925781 16.597656 21.640625 16.695312 21.351562 C 16.757812 21.167969 16.820312 20.984375 16.882812 20.800781 C 16.914062 20.714844 16.941406 20.632812 16.96875 20.546875 C 17.136719 20.0625 17.304688 19.585938 17.480469 19.109375 C 17.574219 18.84375 17.664062 18.578125 17.753906 18.3125 C 17.785156 18.222656 17.8125 18.132812 17.84375 18.042969 C 17.882812 17.929688 17.917969 17.820312 17.953125 17.707031 C 18.074219 17.351562 18.191406 16.996094 18.3125 16.632812 Z M 18.3125 16.632812 "/>
<path style=" stroke:none;fill-rule:nonzero;fill:rgb(92.156863%,0.392157%,6.666667%);fill-opacity:1;" d="M 19.90625 19.738281 C 19.992188 19.738281 20.074219 19.738281 20.160156 19.738281 C 20.308594 20.039062 20.300781 20.382812 20.332031 20.710938 C 20.339844 20.785156 20.347656 20.855469 20.355469 20.933594 C 20.402344 21.40625 20.417969 21.867188 20.410156 22.34375 C 20.164062 22.34375 19.914062 22.34375 19.65625 22.34375 C 19.738281 21.484375 19.824219 20.625 19.90625 19.738281 Z M 19.90625 19.738281 "/>
</g>
</svg>
